<svg width="122" height="33" fill="none" xmlns="http://www.w3.org/2000/svg"><path d="M44.304 26.36c-1.376 0-2.512-.352-3.408-1.056-.888-.704-1.52-1.656-1.896-2.856l3.216-.768c.072.44.304.824.696 1.152.392.32.808.48 1.248.48.304 0 .628-.084.972-.252.352-.168.604-.436.756-.804.096-.232.152-.516.168-.852a24.8 24.8 0 00.024-1.164V8.72h3.312v11.52c0 .552-.004 1.032-.012 1.44 0 .408-.04.792-.12 1.152a3.67 3.67 0 01-.444 1.104c-.488.848-1.124 1.464-1.908 1.848-.784.384-1.652.576-2.604.576zm13.505.024c-1.016 0-1.844-.172-2.484-.516-.64-.344-1.14-.78-1.5-1.308a5.536 5.536 0 01-.756-1.644 8.464 8.464 0 01-.276-1.572 17.112 17.112 0 01-.048-1.032V13.04h3.312v6.12c0 .296.016.676.048 1.14.032.456.132.916.3 1.38.168.464.44.852.816 1.164.384.312.924.468 1.62.468.28 0 .58-.044.9-.132.32-.088.62-.256.9-.504.28-.256.508-.628.684-1.116.184-.496.276-1.144.276-1.944l1.872.888a6.755 6.755 0 01-.624 2.88 5.152 5.152 0 01-1.884 2.172c-.832.552-1.884.828-3.156.828zm4.2-.384v-4.296H61.6V13.04h3.288V26h-2.88zm11.778 6.12a6.13 6.13 0 01-2.1-.36 5.982 5.982 0 01-1.788-.984 5.282 5.282 0 01-1.273-1.464l3.024-1.464c.209.384.504.676.888.876.392.2.817.3 1.273.3.487 0 .947-.084 1.38-.252.431-.16.775-.404 1.031-.732.265-.32.389-.72.373-1.2v-3.768h.407V13.04h2.857v13.848c0 .32-.016.62-.048.9a5.124 5.124 0 01-.145.852c-.207.792-.596 1.444-1.163 1.956-.56.512-1.249.892-2.064 1.14-.816.256-1.7.384-2.652.384zm-.288-5.76c-1.192 0-2.236-.3-3.132-.9-.897-.6-1.597-1.416-2.1-2.448-.496-1.032-.745-2.196-.745-3.492 0-1.32.252-2.492.756-3.516.512-1.032 1.228-1.844 2.148-2.436.92-.592 2-.888 3.24-.888 1.233 0 2.269.3 3.109.9.84.6 1.475 1.416 1.907 2.448.433 1.032.648 2.196.648 3.492 0 1.296-.22 2.46-.66 3.492-.431 1.032-1.08 1.848-1.944 2.448-.864.6-1.94.9-3.227.9zm.528-2.904c.727 0 1.308-.164 1.74-.492.44-.328.755-.788.948-1.38.191-.592.287-1.28.287-2.064s-.096-1.472-.287-2.064c-.193-.592-.5-1.052-.925-1.38-.416-.328-.964-.492-1.644-.492-.728 0-1.328.18-1.8.54-.464.352-.808.828-1.032 1.428a5.522 5.522 0 00-.335 1.968c0 .728.108 1.392.323 1.992.216.592.548 1.064.996 1.416.448.352 1.025.528 1.728.528zm12.792 2.904c-.928 0-1.716-.176-2.364-.528-.64-.36-1.128-.836-1.464-1.428a4.06 4.06 0 01-.492-1.98c0-.6.092-1.148.276-1.644.184-.496.48-.932.888-1.308.416-.384.972-.704 1.668-.96.48-.176 1.052-.332 1.716-.468a38.418 38.418 0 012.256-.384l2.772-.42-1.176.648c0-.768-.184-1.332-.552-1.692-.368-.36-.984-.54-1.848-.54-.48 0-.98.116-1.5.348-.52.232-.884.644-1.092 1.236l-2.952-.936a5.008 5.008 0 011.848-2.616c.904-.672 2.136-1.008 3.696-1.008 1.144 0 2.16.176 3.048.528.888.352 1.56.96 2.016 1.824.256.48.408.96.456 1.44.048.48.072 1.016.072 1.608V26h-2.856v-2.664l.408.552c-.632.872-1.316 1.504-2.052 1.896-.728.384-1.652.576-2.772.576zm.696-2.568c.6 0 1.104-.104 1.512-.312.416-.216.744-.46.984-.732.248-.272.416-.5.504-.684.168-.352.264-.76.288-1.224.032-.472.048-.864.048-1.176l.96.24c-.968.16-1.752.296-2.352.408-.6.104-1.084.2-1.452.288a8.47 8.47 0 00-.972.288c-.32.128-.58.268-.78.42a1.513 1.513 0 00-.432.48 1.296 1.296 0 00-.132.588c0 .296.072.552.216.768.152.208.364.368.636.48.272.112.596.168.972.168zM100.006 26v-7.032L94.102 8.72h3.816l3.744 6.504 3.744-6.504h3.816l-5.904 10.248V26h-3.312zm12.571.36c-.928 0-1.716-.176-2.364-.528-.64-.36-1.128-.836-1.464-1.428a4.06 4.06 0 01-.492-1.98c0-.6.092-1.148.276-1.644.184-.496.48-.932.888-1.308.416-.384.972-.704 1.668-.96.48-.176 1.052-.332 1.716-.468a38.418 38.418 0 012.256-.384l2.772-.42-1.176.648c0-.768-.184-1.332-.552-1.692-.368-.36-.984-.54-1.848-.54-.48 0-.98.116-1.5.348-.52.232-.884.644-1.092 1.236l-2.952-.936a5.008 5.008 0 011.848-2.616c.904-.672 2.136-1.008 3.696-1.008 1.144 0 2.16.176 3.048.528.888.352 1.56.96 2.016 1.824.256.48.408.96.456 1.44.048.48.072 1.016.072 1.608V26h-2.856v-2.664l.408.552c-.632.872-1.316 1.504-2.052 1.896-.728.384-1.652.576-2.772.576zm.696-2.568c.6 0 1.104-.104 1.512-.312.416-.216.744-.46.984-.732.248-.272.416-.5.504-.684.168-.352.264-.76.288-1.224.032-.472.048-.864.048-1.176l.96.24c-.968.16-1.752.296-2.352.408-.6.104-1.084.2-1.452.288a8.47 8.47 0 00-.972.288c-.32.128-.58.268-.78.42a1.513 1.513 0 00-.432.48 1.296 1.296 0 00-.132.588c0 .296.072.552.216.768.152.208.364.368.636.48.272.112.596.168.972.168z" fill="#151515"/><path d="M22.68 31.29C22.784 14.358 12.117 6.093 6.77 4.077c12.687-8.743 25.506.526 25.769 11.964.21 9.15-6.486 13.98-9.86 15.25z" fill="url(#prefix__paint0_linear_884_364)"/><path d="M22.614 31.16C23.297 14.435 12.38 6.091 6.837 4.01 1.643 7.428-3.287 18.472 4.667 27.15c6.364 6.941 14.616 5.565 17.947 4.01z" fill="url(#prefix__paint1_linear_884_364)"/><path fill-rule="evenodd" clip-rule="evenodd" d="M15.644.023A16.544 16.544 0 001.288 10.07C.495 11.922.056 13.978.006 16.086c-.068 2.8.459 5.198 1.692 7.703a16.39 16.39 0 004.891 5.91c4.322 3.25 10.006 4.169 15.166 2.45 3.424-1.14 6.422-3.423 8.465-6.446a16.46 16.46 0 002.53-6.207c.212-1.157.25-1.619.25-3 0-1.38-.039-1.844-.25-2.998C31.717 7.85 27.71 3.069 22.324 1.056c-2.11-.788-4.477-1.154-6.68-1.033zm-.043 1.07c-2.026.11-4.055.645-5.921 1.56-.589.288-1.714.942-1.736 1.01-.007.02.124.106.29.192 1.84.943 4.076 2.574 5.832 4.252l.356.34.348-.525c1.426-2.152 2.546-4.278 3.26-6.186.117-.313.182-.54.16-.563-.02-.02-.398-.056-.84-.08-.867-.046-.89-.046-1.75 0zm3.502.806c-.698 1.967-1.92 4.317-3.412 6.562l-.505.76.346.382a28.809 28.809 0 015.994 10.2c.13.385.24.705.247.713.007.007.241-.06.52-.15a31.788 31.788 0 016.184-1.34c.88-.095 2.246-.159 2.801-.13l.498.025.047-.339c.207-1.486.16-3.386-.12-4.9a15.515 15.515 0 00-2.576-6.09c-1.002-1.415-2.48-2.868-3.879-3.816a15.662 15.662 0 00-3.939-1.948c-.583-.19-1.53-.436-1.818-.473l-.186-.024-.202.568zM8.335 6.606c-.962.98-2.33 2.69-3.564 4.452-.434.621-.42.553-.315 1.486.247 2.206.784 4.426 1.543 6.37.115.296.232.553.259.57.027.016.613.144 1.303.282 1.532.309 2.573.555 3.949.932.577.159 1.096.297 1.154.307.095.016.363-.273 2.715-2.931a625.851 625.851 0 002.688-3.048c.092-.117.128-.04-.446-.945a28.441 28.441 0 00-4.96-5.822 23.745 23.745 0 00-1.91-1.55l-.701-.524H8.749l-.414.421zm-6.544 5.156c-.348 1.19-.5 1.878-.633 2.867-.103.767-.103 2.98 0 3.737.243 1.77.707 3.347 1.427 4.846l.245.51.34.105c.187.058.591.186.899.284l.56.18.05-.395c.115-.901.41-2.199.684-3.012l.14-.413-.147-.334c-.985-2.23-1.67-4.84-1.957-7.46l-.09-.81-.701-.09c-.835-.106-.79-.105-.817-.015zm14.388 7.006c-1.38 1.562-2.515 2.872-2.522 2.911-.027.147.371 1.577.794 2.852.228.687 1.13 3.23 1.157 3.26.009.01.418.096.91.192 1.763.345 3.434.543 5.1.604.362.013.38.01.38-.071 0-.238-.09-1.519-.146-2.077-.289-2.882-1.001-5.717-2.076-8.264-.213-.503-1.05-2.256-1.075-2.25-.008 0-1.143 1.28-2.523 2.843zm13.8 1.209c-1.402.056-3.515.374-5.14.773-1.147.281-2.758.77-2.758.836 0 .017.073.344.163.727.53 2.264.772 4.26.812 6.704.013.796.03 1.448.04 1.448.04 0 .87-.432 1.192-.621 1.18-.692 2.077-1.393 3.123-2.437.431-.43.946-.987 1.144-1.235a15.884 15.884 0 002.898-5.72l.122-.456-.089-.023c-.086-.024-.89-.021-1.508.004zm-26.22 5.26c.04.062.239.332.442.599a15.826 15.826 0 004.855 4.195c.232.127.278.141.26.079a9.876 9.876 0 01-.09-.55l-.069-.474-.233-.152c-1.031-.667-2.381-1.852-3.234-2.84l-.412-.476-.767-.247c-.422-.136-.78-.247-.797-.247-.016 0 .004.05.045.113zm10.301 3.507c-.828.29-2.416.694-3.218.82l-.318.05.269.521c.148.287.328.612.4.722.128.194.145.204.563.339.952.305 1.947.518 3.045.65.734.09 2.54.1 3.25.021a16.833 16.833 0 003.382-.73l.566-.189V29.643h-.45c-1.532 0-4.37-.386-6.507-.886a16.54 16.54 0 00-.617-.138c-.008.002-.173.058-.365.125z" fill="url(#prefix__paint2_linear_884_364)"/><defs><linearGradient id="prefix__paint0_linear_884_364" x1="19.658" y1=".62" x2="19.658" y2="31.291" gradientUnits="userSpaceOnUse"><stop stop-color="#C7E800"/><stop offset="1" stop-color="#8EC000"/></linearGradient><linearGradient id="prefix__paint1_linear_884_364" x1="11.566" y1="4.01" x2="11.566" y2="32.422" gradientUnits="userSpaceOnUse"><stop stop-color="#fff"/><stop offset="1" stop-color="#D3D3D3"/></linearGradient><linearGradient id="prefix__paint2_linear_884_364" x1="16.5" y1="0" x2="16.5" y2="33" gradientUnits="userSpaceOnUse"><stop stop-color="#343434"/><stop offset="1" stop-color="#141414"/></linearGradient></defs></svg>
