<svg width="40" height="41" viewBox="0 0 40 41" fill="none" xmlns="http://www.w3.org/2000/svg">
<path d="M30.5128 7.74793C30.1435 7.74754 29.7824 7.85671 29.4752 8.06164C29.168 8.26656 28.9285 8.55801 28.787 8.89911C28.6455 9.24021 28.6083 9.61562 28.6803 9.97783C28.7522 10.34 28.93 10.6728 29.1912 10.9339C29.4523 11.195 29.785 11.3728 30.1472 11.4447C30.5094 11.5167 30.8848 11.4796 31.2259 11.3381C31.567 11.1966 31.8585 10.9571 32.0634 10.6499C32.2683 10.3426 32.3775 9.98154 32.3771 9.61226C32.3761 9.11813 32.1793 8.64453 31.8299 8.29512C31.4805 7.94571 31.0069 7.74896 30.5128 7.74793Z" fill="black"/>
<path fill-rule="evenodd" clip-rule="evenodd" d="M14.2229 12.5191C15.8096 11.4589 17.6751 10.893 19.5834 10.893C22.1416 10.8956 24.5943 11.913 26.4032 13.7219C28.2121 15.5308 29.2295 17.9835 29.2321 20.5417C29.2321 22.45 28.6662 24.3155 27.606 25.9022C26.5458 27.489 25.0389 28.7257 23.2758 29.456C21.5127 30.1862 19.5727 30.3773 17.701 30.005C15.8294 29.6327 14.1101 28.7138 12.7607 27.3644C11.4113 26.015 10.4924 24.2957 10.1201 22.4241C9.7478 20.5524 9.93887 18.6124 10.6692 16.8493C11.3994 15.0862 12.6361 13.5793 14.2229 12.5191ZM15.3109 26.936C16.5755 27.7811 18.0624 28.2321 19.5834 28.2321C21.6222 28.2295 23.5768 27.4184 25.0185 25.9768C26.4601 24.5351 27.2712 22.5805 27.2738 20.5417C27.2738 19.0207 26.8227 17.5338 25.9777 16.2692C25.1327 15.0045 23.9316 14.0188 22.5264 13.4367C21.1212 12.8547 19.5749 12.7024 18.0831 12.9991C16.5913 13.2958 15.221 14.0283 14.1455 15.1038C13.07 16.1793 12.3375 17.5496 12.0408 19.0414C11.7441 20.5332 11.8964 22.0795 12.4784 23.4847C13.0605 24.8899 14.0462 26.091 15.3109 26.936Z" fill="black"/>
<path fill-rule="evenodd" clip-rule="evenodd" d="M39.0452 12.1405C39.0113 10.5388 38.7095 8.95417 38.1523 7.45221C37.688 6.20091 36.9523 5.06797 35.9981 4.13479C35.0617 3.17889 33.9246 2.44308 32.6689 1.98062C31.1677 1.42322 29.5836 1.12137 27.9826 1.08762C25.8206 0.981874 25.1 0.958374 19.5833 0.958374C14.0667 0.958374 13.346 0.981874 11.1821 1.07979C9.58045 1.11373 7.9958 1.41557 6.49383 1.97279C5.24253 2.43708 4.1096 3.17276 3.17642 4.12696C2.22051 5.06332 1.48471 6.20047 1.02225 7.45612C0.462389 8.95628 0.157894 10.5397 0.121417 12.1405C0.0235 14.3025 0 15.0231 0 20.5417C0 26.0603 0.0235 26.781 0.121417 28.943C0.155354 30.5446 0.457192 32.1292 1.01442 33.6312C1.47871 34.8825 2.21438 36.0154 3.16858 36.9486C4.10495 37.9045 5.2421 38.6403 6.49775 39.1028C7.99898 39.6602 9.58302 39.962 11.184 39.9958C13.3382 40.0937 14.0667 40.1172 19.5853 40.1172C25.1039 40.1172 25.8245 40.0937 27.9865 39.9958C29.5882 39.9619 31.1728 39.66 32.6748 39.1028C33.92 38.6206 35.0508 37.8839 35.995 36.9397C36.9392 35.9955 37.676 34.8646 38.1581 33.6195C38.7155 32.1182 39.0174 30.5342 39.0511 28.9332C39.149 26.779 39.1725 26.0505 39.1725 20.5319C39.1725 15.0133 39.1432 14.3025 39.0452 12.1405ZM37.0869 28.8529C37.0625 30.2416 36.8057 31.6164 36.3271 32.9203C35.9435 33.9114 35.3574 34.8116 34.6061 35.5633C33.8548 36.3149 32.9549 36.9015 31.9639 37.2855C30.6593 37.7639 29.2838 38.0207 27.8945 38.0453C25.7697 38.1432 25.0667 38.1667 19.5833 38.1667C14.1 38.1667 13.397 38.1432 11.2722 38.0453C9.88343 38.0209 8.50859 37.7641 7.20471 37.2855C6.20556 36.9171 5.30203 36.3288 4.56096 35.5641C3.79669 34.8234 3.20844 33.9206 2.83958 32.9223C2.36118 31.6177 2.10436 30.2422 2.07975 28.8529C1.98183 26.7281 1.95833 26.025 1.95833 20.5417C1.95833 15.0584 1.98183 14.3553 2.07975 12.2305C2.10413 10.8418 2.36096 9.46696 2.83958 8.16308C3.20794 7.16394 3.79624 6.2604 4.56096 5.51933C5.30164 4.75507 6.20443 4.16682 7.20275 3.79796C8.50737 3.31955 9.88282 3.06273 11.2722 3.03812C13.3989 2.94021 14.1098 2.91671 19.5833 2.91671C25.0569 2.91671 25.7677 2.94021 27.8945 3.03812C29.2832 3.06251 30.6581 3.31934 31.962 3.79796C32.9611 4.16632 33.8646 4.75462 34.6057 5.51933C35.37 6.26001 35.9582 7.1628 36.3271 8.16112C36.8055 9.46574 37.0623 10.8412 37.0869 12.2305C37.1848 14.3553 37.2083 15.0584 37.2083 20.5417C37.2083 26.025 37.1848 26.7281 37.0869 28.8529Z" fill="black"/>
</svg>
