<svg width="43" height="44" viewBox="0 0 43 44" fill="none" xmlns="http://www.w3.org/2000/svg">
<path fill-rule="evenodd" clip-rule="evenodd" d="M32.8804 25.7658C33.375 25.9432 33.8058 26.2687 34.1167 26.6999H34.1071C34.4492 27.9518 34.3529 29.2865 33.8349 30.4736C33.3282 31.3912 32.6331 32.186 31.7974 32.8032C30.9617 33.4205 30.0051 33.8456 28.9934 34.0495C28.4605 34.1322 27.9224 34.1747 27.3834 34.1768C26.4908 34.1818 25.6029 34.0443 24.7518 33.7695C23.5503 33.3882 22.3692 32.9424 21.2137 32.4339C16.9115 30.2765 13.2443 26.9951 10.5838 22.9223C8.99166 20.8864 8.03359 18.4095 7.83342 15.8116C7.81373 14.756 8.00365 13.7073 8.39172 12.7289C8.77978 11.7504 9.35793 10.8625 10.0913 10.1187C10.3898 9.75234 10.7609 9.45473 11.1801 9.24546C11.5993 9.03619 12.0572 8.92 12.5235 8.90454C12.9413 8.90454 13.363 8.90846 13.731 8.92804C14.2289 8.90238 14.7201 9.05412 15.1207 9.35735C15.5213 9.66058 15.8065 10.0965 15.9275 10.5907L16.5792 12.2239C16.6828 12.481 16.7885 12.744 16.8922 13.0017C17.2986 14.0125 17.6728 14.9432 17.7598 15.1242C17.9246 15.4214 18.0154 15.7555 18.024 16.097C18.0327 16.4385 17.9591 16.777 17.8097 17.0825L17.7253 17.2588C17.5593 17.6396 17.3412 17.9943 17.0775 18.3124L16.7728 18.6864C16.5447 18.9684 16.3089 19.2582 16.1173 19.4541C16.0575 19.51 16.0023 19.571 15.9524 19.6362C16.8925 21.0568 17.9735 22.3745 19.1782 23.5685C20.4214 24.7136 21.8476 25.6324 23.3948 26.2847C23.5788 26.367 23.7303 26.4355 23.8414 26.4904C23.9156 26.5356 23.9965 26.5681 24.081 26.5863C24.2635 26.3156 24.6014 25.8793 24.9401 25.4419C25.3022 24.9743 25.6652 24.5055 25.8405 24.2363C26.0928 23.82 26.491 23.5175 26.9539 23.3905C27.4168 23.2635 27.9097 23.3216 28.3322 23.5529C29.0279 23.8114 32.5297 25.5895 32.5642 25.6072L32.8804 25.7658ZM28.7078 32.1167C30.0643 31.8095 31.2554 30.986 32.039 29.8137H32.0294C32.2784 29.1393 32.4088 28.4253 32.4147 27.7045C32.3073 27.6438 32.1598 27.5714 32.0313 27.5087L31.6921 27.3383C30.7338 26.8487 28.106 25.5445 27.6671 25.38C27.5616 25.3369 27.4525 25.3035 27.3413 25.2801C26.7775 26.1852 26.1409 27.0407 25.438 27.8377C25.1483 28.2019 24.7368 28.4434 24.2831 28.5158C23.8293 28.5881 23.3653 28.4861 22.9808 28.2294C22.9203 28.1984 22.8453 28.1647 22.7571 28.1251C22.7168 28.107 22.6738 28.0877 22.6282 28.0668C20.8963 27.3303 19.2993 26.2986 17.9055 25.0158C16.5069 23.6995 15.3092 22.1766 14.352 20.4979C14.1174 20.1085 14.0301 19.6449 14.1067 19.1944C14.1833 18.7439 14.4185 18.3376 14.7679 18.0519C14.8804 17.9383 14.9975 17.7938 15.1224 17.6399C15.1783 17.5709 15.2357 17.5 15.295 17.4292L15.6228 17.0257C15.7803 16.8324 15.9094 16.6167 16.0061 16.3854L16.0981 16.1895C16.1115 16.1719 16.1249 16.1484 16.0483 15.9937C15.9428 15.7783 15.3429 14.2939 14.8082 12.9622L14.1546 11.3427C14.099 11.1663 14.0083 11.0036 13.8882 10.8648L13.6333 10.8844C13.2902 10.8629 12.9068 10.8629 12.5235 10.8629C12.3498 10.8702 12.1795 10.9144 12.0235 10.9926C11.8674 11.0709 11.7289 11.1814 11.6169 11.3172C11.0144 11.8905 10.5368 12.587 10.2152 13.3613C9.89357 14.1357 9.73509 14.9705 9.75009 15.8116C9.9352 17.929 10.7242 19.9445 12.0194 21.6082L12.1555 21.8041C14.6109 25.5799 17.997 28.6276 21.9727 30.6401C23.0698 31.1216 24.1906 31.5445 25.3307 31.9071C26.4252 32.2442 27.5815 32.3159 28.7078 32.1167Z" fill="black"/>
<path fill-rule="evenodd" clip-rule="evenodd" d="M10.2939 3.03731C13.5569 1.05027 17.2847 0.00086449 21.0833 1.13094e-05C24.3469 -0.00340523 27.5666 0.767318 30.4891 2.25149C33.4115 3.73566 35.9569 5.89276 37.9246 8.55292C39.8924 11.2131 41.2289 14.3037 41.8289 17.5813C42.4289 20.859 42.276 24.2342 41.3822 27.4412C40.4884 30.6482 38.8782 33.5994 36.6783 36.0625C34.4784 38.5255 31.749 40.4331 28.7048 41.6351C25.6607 42.8371 22.385 43.3006 19.1357 42.9892C15.8865 42.6777 12.7523 41.5998 9.98009 39.8403L2.73701 41.7811C2.57528 41.8242 2.40533 41.8233 2.24403 41.7785C2.08273 41.7338 1.93569 41.6467 1.81751 41.526C1.69933 41.4052 1.6141 41.255 1.57031 41.0902C1.52651 40.9254 1.52566 40.7517 1.56784 40.5865L3.43467 33.3191C1.35788 30.0694 0.178962 26.3067 0.0225282 22.4288C-0.133906 18.5509 0.737955 14.7019 2.54596 11.2886C4.35396 7.87522 7.03094 5.02436 10.2939 3.03731ZM10.6624 37.9643C13.7629 40.0273 17.3833 41.1254 21.0833 41.125C25.3647 41.125 29.5229 39.6604 32.8948 36.9647C36.2666 34.2689 38.658 30.4973 39.6876 26.2512C40.7173 22.0051 40.3258 17.5291 38.5757 13.5367C36.8256 9.54439 33.8177 6.26571 30.0315 4.22346C26.2453 2.18122 21.8989 1.49301 17.6853 2.26859C13.4717 3.04416 9.63361 5.23885 6.78297 8.50271C3.93232 11.7666 2.2333 15.9116 1.95681 20.277C1.68032 24.6423 2.84228 28.9766 5.25742 32.5886C5.3352 32.7046 5.38761 32.8364 5.4111 32.9749C5.43458 33.1135 5.42858 33.2556 5.39351 33.3916L3.83334 39.4624L9.89576 37.8389C10.0249 37.8032 10.1601 37.7958 10.2923 37.8174C10.4244 37.839 10.5506 37.8891 10.6624 37.9643Z" fill="black"/>
</svg>
